<svg width="17" height="22" viewBox="0 0 17 22" fill="none" xmlns="http://www.w3.org/2000/svg">
<path d="M2.28875 4.81724H4.17843C4.17363 4.79091 4.1714 4.76426 4.1714 4.73647C4.1682 3.99147 4.23772 3.22467 4.49662 2.52428C4.76783 1.79077 5.23898 1.1398 6.03118 0.672805C6.79207 0.224213 7.67297 0 8.55051 0C9.42805 0 10.3089 0.224209 11.0698 0.672805C11.8625 1.13963 12.3365 1.79094 12.6093 2.52366C12.8708 3.22554 12.9403 3.99411 12.9298 4.73991C12.9295 4.76624 12.9271 4.7916 12.9224 4.81647H14.7122C14.9581 4.81647 15.159 5.01258 15.1701 5.25845L16.9972 21.486C17.0249 21.7396 16.8435 21.9682 16.5927 21.9961L0.458346 22C0.205357 22 0 21.7924 0 21.5367L1.8342 5.22937C1.85993 4.99272 2.05859 4.81746 2.28887 4.81713L2.28875 4.81724ZM4.17139 7.28483C4.17219 7.03025 4.37787 6.82445 4.62974 6.82528C4.8816 6.8261 5.08522 7.03398 5.0844 7.28855C5.08137 7.93791 5.13874 8.59682 5.35225 9.17476C5.55362 9.71962 5.90298 10.2032 6.48967 10.5489C7.10721 10.913 7.82781 11.0949 8.55065 11.0949C9.2735 11.0949 9.9941 10.913 10.6116 10.5489C11.1983 10.2029 11.5507 9.71846 11.7538 9.17199C11.969 8.594 12.026 7.93753 12.0169 7.29206C12.0139 7.03749 12.216 6.82813 12.468 6.82523C12.7199 6.82217 12.927 7.0265 12.9299 7.28123C12.9405 8.02702 12.8709 8.79593 12.6095 9.49747C12.3367 10.2305 11.8627 10.8815 11.07 11.3487C10.3091 11.7973 9.42818 12.0215 8.55064 12.0215C7.6731 12.0215 6.79221 11.7973 6.03131 11.3487C5.23863 10.8815 4.7678 10.2302 4.49675 9.49702C4.23785 8.79659 4.16818 8.02967 4.17153 7.28483H4.17139ZM5.07708 4.81724L12.0241 4.81675C12.019 4.78865 12.0166 4.75909 12.0167 4.7292C12.026 4.08373 11.9688 3.42726 11.7537 2.84928C11.5504 2.30314 11.1983 1.81836 10.6115 1.47269C9.99392 1.1086 9.27333 0.926717 8.55048 0.926717C7.82763 0.926717 7.10703 1.1086 6.4895 1.47269C5.90281 1.81838 5.55345 2.30169 5.35208 2.84655C5.13856 3.42453 5.08119 4.0834 5.08423 4.73276C5.08423 4.76151 5.08183 4.78994 5.07687 4.81724L5.07708 4.81724ZM1.27939 18.3345H15.7216L14.3042 5.74354H2.69681L1.27939 18.3345ZM15.8259 19.2613H1.17465L0.970565 21.0735H16.0298L15.8259 19.2613Z" fill="#477CBA"/>
</svg>
