<svg width="18" height="23" viewBox="0 0 18 23" fill="none" xmlns="http://www.w3.org/2000/svg">
<path d="M1.61851 22.6607H15.6467C16.5459 22.6607 17.2653 21.9413 17.2653 21.0421V7.0139C17.2653 6.11466 16.5459 5.39526 15.6467 5.39526H12.3734C12.7152 6.51032 12.949 7.48151 13.0389 7.91314C13.1108 8.2009 12.913 8.48866 12.6253 8.5606C12.5893 8.5606 12.5533 8.57858 12.5174 8.57858C12.2656 8.57858 12.0498 8.39873 11.9958 8.14694C11.8159 7.30168 11.5461 6.34846 11.2404 5.41325H5.86306C5.59328 6.40239 5.39545 7.39158 5.28754 8.11097C5.25157 8.39873 4.96381 8.61455 4.67606 8.56062C4.3883 8.52465 4.17248 8.23689 4.22642 7.94913C4.26239 7.66137 4.42425 6.63622 4.748 5.39528H1.61864C0.719394 5.39528 0 6.11468 0 7.01392V21.0421C0 21.9413 0.719394 22.6607 1.61864 22.6607L1.61851 22.6607ZM4.76584 13.7764C4.94569 13.5426 5.12554 13.2908 5.28742 13.075C5.84493 12.3197 6.13269 11.906 6.58233 11.852C7.39167 11.7441 7.93117 12.4276 8.41678 13.039C8.74051 13.4347 9.13617 13.9383 9.42393 13.9203C9.62177 13.9023 9.87357 13.6506 10.1253 13.4167C10.521 13.0391 11.0246 12.5535 11.726 12.6254C11.9238 12.6434 12.1217 12.6974 12.3195 12.8053C12.5893 12.9312 12.6972 13.2549 12.5713 13.5247C12.4454 13.7944 12.1217 13.9023 11.8519 13.7764C11.762 13.7405 11.69 13.7045 11.6361 13.7045C11.4383 13.6865 11.1685 13.9383 10.8987 14.2081C10.539 14.5498 10.1433 14.9455 9.56781 14.9994H9.42393C8.6326 14.9994 8.09305 14.316 7.60744 13.7225C7.37364 13.4168 7.01392 12.9851 6.7981 12.9312C6.65423 13.0571 6.40244 13.4167 6.18662 13.7225C6.02476 13.9383 5.84491 14.1901 5.64707 14.4419C5.46723 14.6757 5.12549 14.7117 4.89171 14.5318C4.62194 14.352 4.58597 14.0102 4.76582 13.7765L4.76584 13.7764Z" fill="#5C5C5C"/>
<path d="M8.56077 1.07909C9.46001 1.07909 10.4851 3.16533 11.2225 5.39545H12.3736C11.6362 3.03946 10.3412 0 8.56077 0C6.52846 0 5.34151 3.05742 4.72998 5.39545H5.863C6.45652 3.27324 7.39174 1.07909 8.56073 1.07909H8.56077Z" fill="#5C5C5C"/>
</svg>
