<svg width="30" height="31" viewBox="0 0 30 31" fill="none" xmlns="http://www.w3.org/2000/svg">
<path d="M10.2371 9.84761L1.94927 7.61021C1.81623 7.57324 1.67839 7.55475 1.54032 7.55544C1.03871 7.55338 0.567701 7.79666 0.279211 8.20696C-0.00947711 8.61729 -0.0790814 9.14289 0.0927621 9.61436C0.264606 10.0856 0.656216 10.443 1.14115 10.5715L9.25134 12.761H9.25111C9.2664 13.984 9.67947 15.1686 10.4278 16.136C11.1763 17.1032 12.2195 17.8004 13.3996 18.1219L21.2983 20.2537C22.7379 20.6439 24.2737 20.4456 25.567 19.7025C26.8605 18.9592 27.8051 17.7321 28.1928 16.2919L28.3922 15.5506C28.5992 14.7838 27.7924 13.9848 25.8526 13.0334H25.8524C23.846 12.0994 21.7585 11.3502 19.6158 10.7953C18.7815 10.5694 12.3002 8.86874 10.2373 9.84755L10.2371 9.84761ZM1.40945 9.58289C1.13673 9.50849 0.976073 9.22733 1.05047 8.95461C1.12487 8.68212 1.40625 8.52146 1.67875 8.59586L9.57511 10.7276L9.44115 11.221C9.39619 11.3876 9.36241 11.5548 9.33275 11.7219L1.40945 9.58289ZM21.564 19.2641L13.6659 17.1323V17.1326C12.2758 16.7549 11.1439 15.7466 10.609 14.4093C11.6704 15.0193 12.7834 15.5344 13.9352 15.949C13.9932 15.9705 14.0541 15.9817 14.1157 15.9817C14.3629 15.9817 14.5744 15.805 14.6187 15.562C14.663 15.319 14.527 15.0791 14.2958 14.9922C12.3491 14.2587 10.8906 13.5056 10.2957 12.9255C10.29 12.9198 10.282 12.9184 10.2758 12.9127L10.2756 12.9125C10.2589 12.5647 10.282 12.2159 10.344 11.8732C11.5387 12.7381 12.8567 13.4182 14.2538 13.891L14.4681 13.9707C14.6009 14.0204 14.7333 14.069 14.8647 14.1163C15.7194 14.4276 16.6375 14.7297 17.5955 15.0047C17.986 15.1193 18.2769 15.1994 18.4134 15.2363C18.7541 15.3283 19.0923 15.4155 19.4276 15.4976C19.5051 15.517 19.5809 15.5351 19.6597 15.5533C19.9324 15.6195 20.2026 15.6823 20.4705 15.7421L20.6524 15.7813C20.955 15.8496 21.2535 15.9114 21.5479 15.9669C21.5689 15.9705 21.5892 15.9751 21.6097 15.9792C22.6107 16.1725 23.5523 16.314 24.4003 16.3973L24.4268 16.3998C24.5959 16.4162 24.7662 16.4331 24.9273 16.4443C25.0245 16.4513 25.1133 16.455 25.2064 16.46H25.2335C25.4891 16.4744 25.7386 16.484 25.964 16.484L25.9643 16.4842C26.3376 16.4876 26.7107 16.46 27.0798 16.4014C26.6845 17.4817 25.8992 18.3749 24.8782 18.9049C23.8571 19.4348 22.6748 19.5631 21.5639 19.2641L21.564 19.2641ZM23.1062 15.2001C22.8465 15.1601 22.5827 15.1172 22.3109 15.0686L22.1699 15.044C21.8216 14.9803 21.4654 14.9098 21.1014 14.8329L21.011 14.8135C20.6865 14.7439 20.3551 14.6683 20.0219 14.5885L19.8001 14.5373C19.4304 14.4474 19.0573 14.3527 18.6816 14.2512C18.306 14.1494 17.9358 14.0437 17.5702 13.9346C17.4972 13.9132 17.4267 13.8913 17.3546 13.8698C17.0264 13.7706 16.7028 13.6695 16.3874 13.5631L16.2959 13.5334C15.9442 13.4175 15.6021 13.2993 15.2699 13.1786L15.1293 13.1275C14.8737 13.0334 14.6259 12.9383 14.3835 12.8426C14.3283 12.8212 14.2721 12.7993 14.2178 12.7771L14.2176 12.7776C15.7673 13.0161 17.3023 13.3429 18.8147 13.7566C20.3301 14.161 21.821 14.6519 23.2802 15.2273L23.1062 15.2001ZM27.3751 15.2752V15.2754C26.989 15.4235 26.5751 15.4865 26.1622 15.4598C23.9152 14.2893 21.5388 13.386 19.0814 12.7689C16.6489 12.0598 14.1406 11.6427 11.6098 11.5263C11.2396 11.3407 10.9137 11.0783 10.6538 10.7563C11.2207 10.4062 14.4152 10.4495 19.3482 11.7823C24.2813 13.1148 27.0629 14.6878 27.3754 15.2753L27.3751 15.2752Z" fill="black"/>
<path d="M17.1759 15.9493C16.8466 15.8521 16.5242 15.7535 16.2083 15.6533H16.2081C15.9391 15.5678 15.6517 15.7165 15.5662 15.9856C15.4806 16.2547 15.6294 16.5422 15.8985 16.6276C16.2211 16.7298 16.5509 16.8307 16.8875 16.9302V16.9304C16.9346 16.9439 16.9829 16.9509 17.0318 16.9512C17.2865 16.9518 17.5026 16.7649 17.5389 16.5128C17.5749 16.2608 17.4204 16.0205 17.176 15.9493L17.1759 15.9493Z" fill="black"/>
<path d="M20.1123 16.7089C19.7903 16.6367 19.4614 16.5596 19.1287 16.4772C18.8569 16.4147 18.5851 16.5817 18.518 16.8524C18.4509 17.1233 18.6134 17.3978 18.883 17.4695C19.2237 17.5537 19.5594 17.6326 19.89 17.7066C19.9268 17.7148 19.9642 17.7189 20.0019 17.7189C20.2625 17.7184 20.4809 17.5222 20.5092 17.2632C20.5375 17.0044 20.3665 16.7654 20.1123 16.7088L20.1123 16.7089Z" fill="black"/>
<path d="M18.1299 1.78913C18.1313 2.12643 18.228 2.45667 18.4088 2.74124C18.5897 3.02605 18.8474 3.25381 19.1523 3.39849V5.11191C19.1523 5.24746 19.2062 5.37755 19.302 5.47339C19.3979 5.56924 19.5279 5.6231 19.6635 5.6231H21.7083C21.8438 5.6231 21.9739 5.56924 22.0698 5.47339C22.1656 5.37754 22.2195 5.24746 22.2195 5.11191V3.39943C22.7126 3.16665 23.0726 2.7212 23.1962 2.18991C23.3199 1.65862 23.194 1.09998 22.8541 0.673209C22.5143 0.246451 21.9981 -0.00162779 21.4527 8.03945e-06H19.9191C19.4444 8.03945e-06 18.9894 0.188514 18.6539 0.523986C18.3185 0.859687 18.1299 1.31473 18.1299 1.78918L18.1299 1.78913ZM20.1747 4.60071V3.57832H21.1971V4.60071H20.1747ZM22.2194 1.78913C22.2194 2.2127 21.876 2.55593 21.4527 2.55593H19.9191C19.4955 2.55593 19.1523 2.2127 19.1523 1.78913C19.1523 1.36557 19.4955 1.02234 19.9191 1.02234H21.4527C21.876 1.02234 22.2194 1.36557 22.2194 1.78913Z" fill="black"/>
<path d="M27.8518 6.61639C27.865 6.48151 27.8246 6.34664 27.7393 6.24121L26.1244 4.25987C26.0386 4.15489 25.9147 4.08848 25.7798 4.07479C25.6449 4.05927 25.5094 4.09966 25.4051 4.18684L23.4242 5.80169C23.3192 5.88727 23.2524 6.01119 23.2385 6.14606C23.2248 6.28094 23.2652 6.41581 23.3507 6.52079L24.9656 8.50213V8.50236C25.0512 8.60733 25.1749 8.67397 25.3095 8.68789C25.3266 8.68881 25.3437 8.68881 25.3606 8.68789C25.4784 8.68789 25.5925 8.64727 25.6838 8.57287L27.6651 6.95849C27.7701 6.87359 27.8372 6.75058 27.8518 6.61639L27.8518 6.61639ZM25.4355 7.45989L24.4642 6.27135L25.6523 5.30007L26.6236 6.48909L25.4355 7.45989Z" fill="black"/>
<path d="M18.1301 4.60069C18.1301 4.05846 17.9147 3.53834 17.531 3.15474C17.1476 2.77134 16.6275 2.55591 16.0853 2.55591C15.5428 2.55591 15.0227 2.77134 14.6394 3.15474C14.256 3.53836 14.0405 4.05847 14.0405 4.60069C14.0405 5.14291 14.256 5.66304 14.6394 6.04664C15.0228 6.43004 15.5429 6.64547 16.0853 6.64547C16.6275 6.64547 17.1477 6.43004 17.531 6.04664C17.9147 5.66302 18.1301 5.14291 18.1301 4.60069ZM16.0853 5.62308C15.8142 5.62308 15.554 5.51536 15.3623 5.32367C15.1706 5.13197 15.0629 4.8718 15.0629 4.60069C15.0629 4.32958 15.1706 4.06941 15.3623 3.87771C15.554 3.68602 15.8142 3.5783 16.0853 3.5783C16.3564 3.5783 16.6164 3.68602 16.8083 3.87771C17 4.06941 17.1077 4.32958 17.1077 4.60069C17.1077 4.8718 17 5.13197 16.8083 5.32367C16.6164 5.51536 16.3564 5.62308 16.0853 5.62308Z" fill="black"/>
<path d="M15.5737 7.66797H16.5961V8.69036H15.5737V7.66797Z" fill="black"/>
<path d="M20.1748 6.64551H21.1972V7.6679H20.1748V6.64551Z" fill="black"/>
<path d="M20.1748 8.69019H21.1972V10.2238H20.1748V8.69019Z" fill="black"/>
<path d="M25.7979 9.20142H26.8202V10.2238H25.7979V9.20142Z" fill="black"/>
<path d="M25.7979 11.2463H26.8202V12.2687H25.7979V11.2463Z" fill="black"/>
<path d="M9.91064 24.2884L11.0471 22.2439L11.9408 22.7407L10.8043 24.7853L9.91064 24.2884Z" fill="black"/>
<path d="M8.98558 28.8547L9.47076 28.6931L8.98603 28.8547L9.47532 30.3218L10.4466 29.9987L9.9573 28.5315C9.6636 27.6479 9.75351 26.6816 10.2051 25.8672L9.31146 25.3704H9.31169C8.72039 26.4352 8.60215 27.6988 8.98557 28.8547L8.98558 28.8547Z" fill="black"/>
<path d="M22.4424 30.3224L22.9306 28.8552H22.9308C23.3149 27.6996 23.1976 26.436 22.6072 25.3709L20.8691 22.2444C20.7553 22.0426 20.5197 21.9424 20.2952 22.0008C20.0709 22.059 19.9138 22.261 19.9127 22.4929V25.3044C19.9127 25.3964 19.9086 25.4884 19.9008 25.5806C19.7934 25.191 19.64 24.8158 19.4437 24.4626L17.359 20.711L17.3592 20.7107C17.246 20.5072 17.0096 20.4058 16.7841 20.4645C16.5586 20.5229 16.4012 20.7263 16.4012 20.9593V24.3332C16.3993 25.2177 16.1125 26.0781 15.5833 26.7869C15.3938 27.0414 15.2288 27.3132 15.0906 27.5987C15.0266 27.4964 14.9618 27.3942 14.889 27.299C14.4598 26.7228 14.227 26.024 14.2245 25.3054V22.4929C14.2243 22.2601 14.0668 22.0568 13.8413 21.9986C13.6161 21.9401 13.3796 22.0415 13.2665 22.245L11.5284 25.3724C10.9378 26.4371 10.82 27.7004 11.2039 28.8556L11.6945 30.3228C11.7641 30.5312 11.959 30.6717 12.1788 30.672H21.9575C22.1775 30.672 22.3731 30.5312 22.4425 30.3223L22.4424 30.3224ZM12.173 28.5332C11.8802 27.6498 11.9701 26.684 12.4208 25.8697L13.201 24.466V25.3045C13.2042 26.2441 13.5089 27.1581 14.0701 27.9116C14.3323 28.2589 14.5199 28.6565 14.6216 29.0796C14.594 29.2683 14.5769 29.4582 14.5705 29.6488H12.5465L12.173 28.5332ZM15.5882 29.6496C15.6308 28.836 15.9136 28.0533 16.401 27.4004C17.0628 26.5147 17.4214 25.4389 17.4234 24.3332V22.9315L18.5481 24.9589C19.0248 25.8202 19.1756 26.8244 18.9728 27.7879C18.9223 28.0309 19.0535 28.2751 19.284 28.3668C19.5148 28.4588 19.7779 28.3716 19.9085 28.1605L19.9596 28.0715C19.9902 28.0161 20.0244 27.9627 20.0618 27.9116C20.6239 27.1584 20.9288 26.2443 20.9309 25.3045V24.4656L21.7134 25.8668C22.1648 26.6815 22.2545 27.6477 21.9608 28.5316L21.5888 29.6496L15.5882 29.6496Z" fill="black"/>
<path d="M22.1182 22.7407L23.0119 22.2441L23.6978 23.4788L22.8042 23.9754L22.1182 22.7407Z" fill="black"/>
<path d="M24.7493 25.3704L24.2096 24.3992L23.3159 24.8955L23.8556 25.8668H23.8559C24.148 26.3924 24.2927 26.9871 24.274 27.588L25.2963 27.6206V27.6208C25.321 26.8351 25.1318 26.0573 24.7493 25.3704L24.7493 25.3704Z" fill="black"/>
<path d="M23.6143 29.9987L23.9554 28.9766L24.9249 29.2999L24.5837 30.3221L23.6143 29.9987Z" fill="black"/>
<path d="M11.5474 21.2416L12.0586 20.2192L12.973 20.6766L12.4618 21.699L11.5474 21.2416Z" fill="black"/>
<path d="M29.2359 8.02954C29.6067 7.6571 29.8377 7.16805 29.8895 6.64499C29.9411 6.12193 29.8108 5.59701 29.52 5.15908L29.2998 4.82886L28.4492 5.39528L28.6694 5.72665V5.72642C28.8294 5.96764 28.9011 6.25655 28.8728 6.54456C28.8443 6.83234 28.7171 7.10163 28.5129 7.30657L29.2359 8.02954Z" fill="black"/>
</svg>
