<svg width="30" height="25" viewBox="0 0 30 25" fill="none" xmlns="http://www.w3.org/2000/svg">
<path d="M2.32573 20.8063C2.78169 21.6112 4.05101 23.7047 4.77556 24.3944C5.14864 24.7497 5.58 24.8665 6.08283 24.9013C6.91293 24.9587 7.76252 24.9153 8.58985 24.8449C11.6521 24.5839 14.7327 23.7558 17.6446 22.7974C22.5968 21.1673 27.7994 18.0199 28.9699 12.5336C29.5762 9.69143 29.0098 6.65227 27.3932 4.23636C27.2578 4.03371 26.9135 4.20181 27.0498 4.40785C28.4325 6.49877 29.0375 9.05545 28.7223 11.546C28.4094 14.0187 27.1694 16.2135 25.4064 17.9472C23.5431 19.7795 21.2006 21.0293 18.7708 21.9393C14.5914 23.5045 10.2559 24.3562 7.82481 24.5065C7.12359 24.55 6.295 24.6503 5.61136 24.4521C4.90102 24.246 4.42831 23.41 4.00287 22.8476C3.66794 22.405 3.34365 21.955 3.02755 21.4993C4.09165 22.4695 5.47928 22.3162 6.88829 22.1303C15.6978 20.9683 22.0974 18.3642 26.1646 10.4138C27.8074 7.20276 27.8568 3.73311 24.9443 1.63357C24.9794 1.5244 24.862 1.37348 24.7333 1.48603C23.5836 0.706613 22.2314 0.178553 20.855 0.0350739C19.1384 -0.143835 17.4693 0.392252 15.8687 0.950158C11.4963 2.4734 7.17857 4.82251 3.99534 8.23643C1.98007 10.3977 -0.236307 13.4226 0.0203707 16.5364C0.0655215 17.0839 0.229593 17.6757 0.522541 18.1676C0.687672 18.656 0.933984 19.1331 1.14171 19.5882C1.37679 20.1031 1.78379 20.6244 2.32579 20.8065L2.32573 20.8063ZM2.38254 20.479C1.64849 20.2092 1.51218 19.6574 1.1588 18.8894C1.5306 19.1635 1.97088 19.293 2.48473 19.2513C2.31854 19.6564 2.27127 20.061 2.38256 20.479H2.38254ZM0.52074 17.0001C0.510141 16.8079 0.523071 16.6135 0.570766 16.4165C0.582637 16.3678 0.505691 16.3421 0.486611 16.3892C0.470712 16.4282 0.459266 16.4672 0.446124 16.5062C0.15381 13.6424 2.27906 10.7144 4.08806 8.71743C7.80994 4.6087 14.1088 1.47892 18.5315 0.558028C20.624 0.12242 22.6707 0.577317 24.4486 1.75101C23.7461 2.44648 23.1607 3.32363 22.6129 4.12579C21.2092 6.18219 19.8926 6.85796 17.8525 7.98799C16.9241 4.07239 14.3507 2.92879 12.6631 3.70924C11.3932 4.2964 11.3773 5.76944 11.4864 6.98364C11.5886 8.12235 12.0255 9.54602 13.1278 10.0927C12.8526 10.4386 12.6532 10.8639 13.0756 11.0161C13.0919 11.0218 13.1055 10.9987 13.0903 10.9889C12.6754 10.7161 13.7408 9.86483 13.8644 9.7983C14.3138 9.55601 14.8993 9.5734 15.2041 10.019C15.4674 10.4037 15.5098 11.1166 15.2982 11.5397C15.0882 11.9598 14.5209 12.1542 14.0134 12.2402C14.0033 12.2269 13.9995 12.2152 14.002 12.2421C13.8216 12.2722 13.6488 12.289 13.5032 12.2968C13.429 12.3009 13.3943 12.4085 13.4678 12.4435C13.6404 12.526 13.8409 12.5669 14.0503 12.5735C14.2778 13.7911 15.0913 14.8185 16.1807 15.3808C17.3171 15.9674 18.0545 16.4255 19.4563 15.1462C20.3305 14.3487 20.7983 13.1847 20.7074 12.0043C20.579 10.3375 19.5983 9.65817 18.966 8.67775C22.4091 6.505 24.8995 6.27541 26.2132 5.8021C26.3152 5.76543 26.2692 5.6234 26.1704 5.62595C24.2802 5.67322 20.7536 7.1901 18.7854 8.36973C18.7226 8.24827 18.6357 8.31716 18.6495 8.37567C18.6548 8.39793 18.6618 8.41891 18.6675 8.44053C17.6308 9.07202 16.6478 9.80863 15.8372 10.6786C15.7953 10.329 15.6774 9.99514 15.497 9.76516C16.2459 9.31916 17.0216 8.90049 17.7919 8.4719C17.8018 8.49712 17.8116 8.52256 17.8217 8.548C17.8567 8.6347 17.982 8.60481 17.964 8.50963C17.9563 8.46978 17.9477 8.42929 17.9396 8.38922C22.4089 5.8898 22.137 5.14429 23.8681 2.96644C24.1437 2.61986 24.453 2.29344 24.7256 1.94304C25.5557 2.54865 26.2397 3.32747 26.5886 4.32716C27.6706 7.42921 25.7526 10.5883 24.0276 13.0428C20.074 18.6669 14.5408 20.5819 7.71093 21.5907C6.25867 21.8053 3.90511 22.3556 2.96544 20.8242C3.02098 20.763 3.01335 20.6534 2.90991 20.6279C2.89147 20.6235 2.87345 20.619 2.85522 20.6144C2.62925 20.1065 2.73185 19.584 3.00551 19.1426C3.54963 18.9572 3.99754 18.5646 4.34034 18.0838C5.97064 17.4406 8.24769 17.9127 9.84235 15.4657C10.6614 14.2087 11.3359 12.423 13.0707 12.2962C13.3141 12.2784 13.2388 11.9064 12.9978 11.924C10.5662 12.1016 9.98307 15.2677 8.44436 16.419C7.95978 16.7816 7.38509 16.9671 6.79669 17.0985C7.64058 15.3266 7.93269 15.4339 9.60516 14.654C9.67723 14.6203 9.6342 14.5069 9.56213 14.5097C8.08426 14.566 6.95612 15.755 6.64936 17.1184C6.64851 17.1225 6.64894 17.1261 6.64872 17.1301C5.9914 17.2672 5.37706 17.341 4.65337 17.5672C5.36051 16.1881 5.03832 14.9658 5.7478 13.977C5.75543 13.9666 5.75883 13.9562 5.76201 13.9458C6.31188 13.1952 7.11865 12.4893 8.0295 12.009C8.89287 11.5537 9.84654 11.2825 10.8202 11.2124C11.716 11.1477 12.5781 11.3109 13.4582 11.4492C13.5924 11.4701 13.6755 11.2749 13.5396 11.2149C11.8754 10.4804 9.71261 10.8084 8.13657 11.6221C6.60101 12.4151 5.02898 13.9649 4.63322 15.7045C4.62156 15.7556 4.69406 15.7751 4.71738 15.7319C4.7797 15.6168 4.84053 15.5021 4.90116 15.3881C4.70614 16.1964 4.60185 17.051 4.13786 17.7537C3.5736 17.9895 3.06399 18.3216 2.7244 18.8096C1.56213 19.0996 0.775059 18.1921 0.520716 17.0001L0.52074 17.0001ZM16.1254 7.83245C15.4547 7.01146 14.8565 6.05715 13.8916 6.60322C13.3778 6.89405 13.35 7.47272 13.3485 8.00415C13.3475 8.39334 13.357 9.26458 13.792 9.50346C13.6252 9.59227 13.4416 9.722 13.1881 10.0198C12.2723 9.18826 11.7996 8.21424 11.6896 6.94811C11.5698 5.57003 11.7305 3.92768 13.4013 3.70638C14.6176 3.5455 15.697 4.34569 16.3811 5.27732C17.0077 6.13055 17.2938 7.12638 17.6508 8.10105C17.2927 8.30136 16.9383 8.50635 16.5937 8.72423C16.5545 8.3679 16.3518 8.10951 16.1254 7.83243V7.83245ZM16.4614 8.80777C16.0781 9.05599 15.7093 9.3233 15.3636 9.62067C14.9572 9.25099 14.3699 9.23657 13.8825 9.45957C13.6945 9.0937 13.5472 8.80225 13.5209 8.36427C13.4921 7.8835 13.4524 7.16722 13.8764 6.84374C14.7279 6.19401 15.2498 7.20834 16.4614 8.80767L16.4614 8.80777ZM15.8509 10.8438C16.833 10.1454 17.7871 9.43546 18.7902 8.79062C19.1223 9.54503 19.7845 10.0886 20.1235 10.8616C21.141 13.1824 19.3618 15.474 17.935 15.6711C17.3521 15.7519 16.6341 15.3254 16.1319 15.0577C14.7019 14.295 14.6364 13.3381 14.2248 12.571C14.6144 12.5475 15.0156 12.4093 15.3156 12.1835C15.8091 13.1639 16.8495 14.2183 17.9863 13.7799C19.3879 13.2394 18.5235 11.2228 18.1807 10.2435C18.1642 10.1962 18.0993 10.2198 18.1084 10.2666C18.2888 11.1798 19.0271 13.3519 17.62 13.552C16.7143 13.6807 15.8914 12.8699 15.4032 12.1138C15.7739 11.7899 15.8757 11.3299 15.8509 10.8438L15.8509 10.8438Z" fill="black"/>
<path d="M5.67385 13.0149C5.68424 13.0124 5.6872 12.9984 5.67639 12.9935C4.49969 12.4687 4.31508 10.1641 4.18072 8.9842C4.17288 8.91489 4.05586 8.92103 4.05714 8.99141C4.07134 9.86221 4.12603 10.7351 4.40817 11.5688C4.57797 12.0697 4.99028 13.1807 5.67387 13.0149L5.67385 13.0149Z" fill="black"/>
<path d="M11.4201 20.2448C10.5012 19.6724 9.62043 19.1457 9.18734 17.8181C9.10657 17.5703 9.11781 17.173 8.95989 16.9706C8.92597 16.9269 8.81257 16.9683 8.80896 17.0372C8.73838 18.4256 10.0077 20.1108 11.3807 20.3637C11.4462 20.3756 11.4716 20.2768 11.4201 20.2448L11.4201 20.2448Z" fill="black"/>
<path d="M7.37939 11.6619C6.42274 10.2003 6.2964 8.44899 6.81806 6.8068C6.83778 6.74469 6.75256 6.7059 6.72373 6.76631C5.95576 8.38094 6.27392 10.2923 7.3429 11.6869C7.35817 11.7068 7.39335 11.6833 7.37936 11.6619L7.37939 11.6619Z" fill="black"/>
<path d="M11.182 13.5077C11.5163 15.7769 13.4162 17.8926 15.4855 18.7645C15.5332 18.7846 15.5667 18.7197 15.5222 18.693C14.5569 18.1141 13.6629 17.4103 12.9325 16.5508C11.8575 15.2859 11.1644 13.3872 11.182 13.5077L11.182 13.5077Z" fill="black"/>
</svg>
