<svg width="33" height="30" viewBox="0 0 33 30" fill="none" xmlns="http://www.w3.org/2000/svg">
<path d="M23.5522 1.10707L23.2869 0.959342C21.9562 0.306293 20.4897 -0.0220381 19.0077 0.00114798C16.5095 0.0403586 14.0832 0.844472 12.0564 2.3052C11.9534 2.36843 3.70021 7.41582 2.85264 13.8643C2.84961 13.8872 2.84436 13.9099 2.83663 13.9317C2.56188 14.7639 2.21755 15.5719 1.80746 16.3464C1.77571 16.4066 1.73981 16.4649 1.7006 16.5207L0.960273 17.6685C0.936525 17.708 0.90477 17.7478 0.877156 17.7873C0.69077 18.0225 0.485325 18.2423 0.263594 18.4445C0.0827284 18.5701 -0.0169574 18.7833 0.00237608 19.0025C0.0854926 19.6873 1.3049 20.5701 2.05675 20.966C2.07249 20.9699 3.20079 21.4095 4.29725 19.7309C5.06105 18.5808 5.9289 17.5036 6.89013 16.5126C6.91774 16.4176 6.95751 16.3226 6.98898 16.2235C7.0166 16.1404 7.04449 16.0534 7.08011 15.9662C7.1196 15.8513 7.17123 15.7367 7.21458 15.6218C7.2502 15.5387 7.28196 15.4556 7.31758 15.3725C7.36894 15.2538 7.4283 15.135 7.48381 15.0201C7.5233 14.937 7.55892 14.8539 7.59868 14.7747C7.65805 14.6521 7.72543 14.5333 7.78866 14.4104C7.83229 14.3312 7.87177 14.2561 7.9154 14.1768C7.98664 14.0501 8.06175 13.9234 8.13713 13.7969C8.18076 13.7256 8.22412 13.6505 8.26775 13.5752C8.35086 13.4445 8.43784 13.3139 8.5251 13.1833C8.57259 13.1159 8.61208 13.0447 8.65957 12.9776C8.75842 12.8313 8.86529 12.6846 8.97243 12.5383C9.01191 12.4869 9.04753 12.4353 9.0873 12.3801C9.23779 12.1821 9.39214 11.9802 9.55037 11.7822V11.782C10.2506 10.9229 11.0114 10.1144 11.8265 9.36333C13.0597 8.213 14.3893 7.17055 15.8011 6.24805C15.9754 6.13732 16.0704 6.07796 16.0704 6.07796V6.07768C16.7046 5.64609 17.3701 5.26228 18.0615 4.92983C18.5928 4.67385 19.1401 4.45295 19.7004 4.26877C19.9578 4.18565 20.219 4.11055 20.4802 4.04317C20.579 4.01556 20.6782 3.99954 20.7812 3.9758C20.9435 3.93631 21.1059 3.90069 21.268 3.86893C21.3787 3.84905 21.4856 3.83331 21.5966 3.81757C21.7509 3.79383 21.9053 3.76621 22.0596 3.7502C22.1704 3.73446 22.2852 3.72645 22.3962 3.71844C22.523 3.70657 22.6456 3.69083 22.7685 3.68282L23.7661 2.68928H23.7658C23.987 2.46755 24.0925 2.15525 24.0505 1.84462C24.0085 1.53399 23.8244 1.26088 23.5521 1.1057L23.5522 1.10707ZM4.72484 16.8658C4.72484 17.0845 4.54757 17.2618 4.32887 17.2618C4.11017 17.2618 3.9329 17.0845 3.9329 16.8658V12.3966C3.9329 12.1779 4.11017 12.0007 4.32887 12.0007C4.54757 12.0007 4.72484 12.1779 4.72484 12.3966V16.8658ZM7.17133 14.0949H7.15532C6.94352 14.0965 6.76845 13.9303 6.75934 13.7188L6.53761 8.50518V8.50546C6.52298 8.39528 6.55501 8.284 6.62625 8.19868C6.69721 8.11336 6.80104 8.06172 6.91205 8.05675C7.02305 8.05178 7.1313 8.09375 7.20971 8.17217C7.28841 8.25059 7.33038 8.35856 7.32541 8.46956L7.55101 13.6832C7.55542 13.7881 7.51787 13.8906 7.44635 13.9679C7.37511 14.0452 7.27626 14.0907 7.17105 14.0949H7.17133ZM15.0136 6.16991H15.0133C14.9589 6.38032 14.7452 6.50761 14.5342 6.45487C14.0483 6.30383 13.5291 6.29417 13.0379 6.42726C12.8637 6.48663 12.3332 6.67274 12.357 8.1771C12.3592 8.28203 12.3194 8.38365 12.2468 8.45931C12.1739 8.53497 12.0742 8.5786 11.969 8.58081H11.961H11.9613C11.7448 8.57943 11.5689 8.40546 11.5653 8.18898C11.5454 6.8152 11.9533 5.96834 12.7767 5.67922C13.4143 5.49256 14.0921 5.49532 14.7284 5.68696C14.8302 5.71319 14.9175 5.77863 14.9711 5.8692C15.0246 5.96005 15.0398 6.06801 15.0133 6.16991L15.0136 6.16991ZM16.5693 4.46368H16.5691C16.487 4.66608 16.2576 4.76494 16.0544 4.68541C14.6411 4.12321 12.6936 3.61652 11.419 4.38443C9.01992 5.8214 9.80005 9.57013 9.80775 9.60993C9.85442 9.8231 9.71994 10.0338 9.50677 10.081C9.47943 10.0857 9.45154 10.0882 9.42365 10.089C9.23672 10.0893 9.07518 9.95896 9.03569 9.77616C8.9962 9.60192 8.12111 5.43343 11.0111 3.7038C12.2581 2.95549 14.0513 3.03889 16.3473 3.94929C16.5489 4.03185 16.6475 4.26048 16.569 4.46371L16.5693 4.46368ZM18.3504 3.73028C18.2775 3.80621 18.1767 3.84901 18.0712 3.84901C17.966 3.84901 17.8652 3.80621 17.7923 3.73028L15.9436 1.88161C15.8092 1.72449 15.818 1.49033 15.9643 1.34426C16.1107 1.19791 16.3446 1.18907 16.5017 1.32355L18.3504 3.17222C18.5039 3.32657 18.5039 3.57592 18.3504 3.73027L18.3504 3.73028ZM22.0397 3.1366C21.9533 3.19542 21.847 3.21723 21.7442 3.19707C21.6418 3.17692 21.5515 3.11672 21.4935 3.02974C21.1213 2.49128 20.3732 1.74326 19.9378 1.85396C19.7715 1.89759 19.6724 2.3093 19.8941 3.33045C19.9408 3.54362 19.8063 3.75431 19.5934 3.80153C19.5647 3.80788 19.5355 3.81064 19.5062 3.80954C19.3204 3.80926 19.1602 3.67865 19.1224 3.49668C19.0075 2.9701 18.6593 1.36688 19.7398 1.08582C20.8876 0.788984 22.0201 2.40022 22.1466 2.58606V2.58634C22.2056 2.67332 22.2275 2.78046 22.2073 2.88373C22.1874 2.98672 22.1269 3.07785 22.0397 3.13666L22.0397 3.1366Z" fill="black"/>
<path d="M27.9939 5.55136L27.7285 5.40087C26.2426 4.69256 24.6016 4.3717 22.9584 4.46784C22.4522 4.49048 21.9483 4.54874 21.4502 4.64208C21.0407 4.71553 20.6361 4.81493 20.2388 4.93891C20.1399 4.96653 20.0449 4.99027 19.9458 5.02203H19.9461C19.4187 5.19627 18.9031 5.40392 18.4019 5.6436C17.7403 5.96308 17.1039 6.33227 16.498 6.74784C16.4742 6.75971 16.3872 6.81522 16.2326 6.91407C14.8605 7.81289 13.5666 8.82572 12.3651 9.9424C11.5793 10.6703 10.845 11.452 10.1682 12.2821C9.0358 13.623 8.17042 15.1682 7.61876 16.8343C7.47186 17.3173 7.36307 17.811 7.29431 18.3111C7.2921 18.3337 7.28824 18.3564 7.28244 18.3785C7.0041 19.2088 6.65839 20.0148 6.24917 20.7891C6.22543 20.8328 6.19781 20.8802 6.16992 20.9236L5.40203 22.1112C5.36889 22.1643 5.33189 22.2145 5.2913 22.2617C5.11154 22.4871 4.91438 22.6975 4.70148 22.8913C4.52199 23.0158 4.42342 23.2276 4.44413 23.4455C4.52725 24.1264 5.74665 25.0092 6.49468 25.4049C6.51457 25.4129 7.64254 25.8523 8.73935 24.174L8.73908 24.1737C9.4606 23.0913 10.2724 22.0715 11.1657 21.1258C11.7406 19.2812 12.683 17.5722 13.9367 16.1022C13.9449 16.0884 13.9543 16.0751 13.9645 16.0627C14.6709 15.2114 15.4328 14.4073 16.2446 13.6559C17.4485 12.5431 18.7422 11.5316 20.1123 10.6315C20.3103 10.5047 20.421 10.4376 20.421 10.4376V10.4373C21.0445 10.0113 21.6998 9.63269 22.3805 9.30519C22.9416 9.0321 23.5209 8.79794 24.1143 8.60464L24.1618 8.59277C25.1791 8.2686 26.2347 8.08082 27.3011 8.03471L28.2076 7.13201C28.4279 6.90862 28.5332 6.59605 28.4926 6.28487C28.45 5.97588 28.2656 5.70445 27.9939 5.55147L27.9939 5.55136ZM9.16646 21.3066C9.16646 21.5253 8.98919 21.7023 8.77049 21.7023C8.55179 21.7023 8.37452 21.5253 8.37452 21.3066V16.8385C8.37452 16.6198 8.55179 16.4426 8.77049 16.4426C8.98919 16.4426 9.16646 16.6198 9.16646 16.8385V21.3066ZM11.605 18.3338H11.5851C11.3733 18.3332 11.2002 18.165 11.1933 17.9535L10.9795 12.9459H10.9793C10.9884 12.7413 11.1521 12.5773 11.357 12.5679C11.5616 12.5588 11.7397 12.7073 11.7671 12.9103L11.9808 17.9179C11.9866 18.0231 11.9501 18.1264 11.8794 18.2045C11.809 18.283 11.7102 18.3296 11.605 18.3349L11.605 18.3338ZM18.6711 10.828L18.6709 10.8277C18.2768 10.7404 17.8668 10.754 17.4794 10.8675C16.9608 11.0494 16.8263 11.8096 16.8026 12.4152C16.7968 12.6273 16.6228 12.7963 16.4105 12.7951H16.3948C16.1777 12.7866 16.0082 12.6046 16.0148 12.3876C16.0543 11.1486 16.4621 10.3884 17.2181 10.1192C17.7337 9.95873 18.2824 9.93553 18.8095 10.0521C18.9208 10.0612 19.0227 10.1167 19.0909 10.205C19.1588 10.2934 19.1864 10.4063 19.1668 10.516C19.1472 10.6259 19.0823 10.7222 18.9879 10.7816C18.8935 10.841 18.7783 10.8578 18.6709 10.8277L18.6711 10.828ZM21.3195 9.03868H21.3192C21.2789 9.13587 21.2016 9.21291 21.1044 9.25323C21.0069 9.29327 20.8979 9.29299 20.8007 9.2524C20.1368 8.96246 19.446 8.73825 18.7382 8.58334C17.531 8.32213 16.5609 8.40137 15.8604 8.82082C14.5222 9.62434 14.1779 11.1406 14.1304 12.2727C14.1028 12.8678 14.1426 13.464 14.2492 14.0502C14.2958 14.2634 14.1613 14.4741 13.9482 14.5213C13.9195 14.526 13.8905 14.5285 13.8612 14.5293C13.6754 14.529 13.5152 14.3984 13.4771 14.2164C13.3528 13.5645 13.3062 12.9001 13.3388 12.2371C13.3981 10.915 13.8137 9.12956 15.4525 8.14408C16.3315 7.6175 17.4912 7.50291 18.9005 7.80748C19.6574 7.97509 20.3972 8.21367 21.1093 8.52017C21.2062 8.56103 21.2827 8.6389 21.3222 8.73638C21.3614 8.83385 21.3603 8.9432 21.3191 9.03985L21.3195 9.03868ZM22.7921 8.1716H22.7918C22.7189 8.24753 22.6182 8.29034 22.5127 8.29034C22.4075 8.29034 22.3067 8.24754 22.2338 8.1716L20.3851 6.32675C20.2299 6.17157 20.2299 5.92001 20.3851 5.76483C20.5403 5.60964 20.7919 5.60964 20.9473 5.76483L22.7922 7.61349H22.7919C22.9462 7.76785 22.9462 8.0183 22.7919 8.17266L22.7921 8.1716ZM26.4815 7.58178H26.4812C26.3937 7.64032 26.2862 7.66158 26.183 7.6406C26.0797 7.61989 25.9891 7.55887 25.9311 7.47106C25.5432 6.88124 24.799 6.14097 24.419 6.28341C24.2884 6.3309 24.1023 6.58024 24.324 7.7085H24.3237C24.3649 7.9225 24.2252 8.1296 24.0112 8.17157C23.9863 8.17627 23.9612 8.17875 23.9358 8.17958C23.7464 8.17903 23.584 8.04483 23.5478 7.85872C23.441 7.3244 23.1637 5.90317 24.1415 5.53898C25.2855 5.11539 26.4612 6.83733 26.5919 7.03533L26.5921 7.0356C26.712 7.2173 26.6626 7.46223 26.4811 7.58289L26.4815 7.58178Z" fill="black"/>
<path d="M27.4873 8.81865C26.4242 8.84792 25.3708 9.03044 24.3598 9.36097C24.3466 9.3687 24.3317 9.37257 24.3162 9.37284C23.772 9.55205 23.2404 9.76743 22.7249 10.0182C22.0743 10.3318 21.4483 10.6944 20.8524 11.1028C20.8367 11.1108 20.7298 11.1779 20.5437 11.2967C19.2111 12.1717 17.9533 13.1553 16.7831 14.238C16.008 14.9507 15.2818 15.7152 14.61 16.526C14.6003 16.5401 14.5898 16.5533 14.5782 16.5657C13.358 17.9862 12.4454 19.644 11.8981 21.4347C11.786 21.8373 11.7026 22.2474 11.6488 22.6618C11.646 22.6848 11.6405 22.7074 11.633 22.7292C11.3486 23.5888 10.9897 24.4219 10.5603 25.2191L9.72111 26.5216C9.7131 26.5335 9.70924 26.5415 9.70123 26.5534V26.5531C9.50546 26.8013 9.28952 27.033 9.05591 27.2459C8.87643 27.3707 8.77812 27.5825 8.79856 27.8001C8.88168 28.4849 10.1011 29.3677 10.8491 29.7595C10.869 29.7676 11.997 30.2069 13.0938 28.5286C13.7468 27.527 17.2818 22.4443 22.745 20.5555C23.5074 20.2882 24.1994 19.8511 24.7679 19.277L32.5628 11.4864H32.5626C32.7832 11.263 32.8881 10.9504 32.8478 10.6392C32.8047 10.3305 32.6203 10.0596 32.3488 9.90666L32.0835 9.75617L32.0837 9.75645C30.6529 9.06861 29.0737 8.74637 27.4878 8.81819L27.4873 8.81865ZM13.5212 25.6583C13.5212 25.877 13.3439 26.0542 13.1255 26.0542C12.9068 26.0542 12.7295 25.877 12.7295 25.6583V21.193C12.7295 20.9745 12.9068 20.7973 13.1255 20.7973C13.3439 20.7973 13.5212 20.9745 13.5212 21.193V25.6583ZM15.9796 23.2159C15.9749 23.2189 15.9693 23.2206 15.9635 23.2197C15.7512 23.22 15.5764 23.0521 15.5678 22.8398L15.3304 17.3017C15.3204 17.083 15.4897 16.898 15.7084 16.8881C15.9271 16.8781 16.1121 17.0474 16.122 17.2661L16.3595 22.8042C16.3639 22.9091 16.3261 23.0115 16.2549 23.0888C16.1836 23.1662 16.0845 23.2117 15.9796 23.2159H15.9796ZM24.7401 10.1207C24.8947 9.96714 25.1441 9.96714 25.2984 10.1207L27.1471 11.9693C27.3006 12.1237 27.3006 12.373 27.1471 12.5274C27.0739 12.6033 26.9731 12.6461 26.8679 12.6461C26.7627 12.6461 26.6619 12.6033 26.5888 12.5274L24.7401 10.6787C24.5868 10.5244 24.5868 10.275 24.7401 10.1207ZM26.4463 16.3239V16.3237C26.324 16.5048 26.0791 16.5542 25.8963 16.4347C25.1797 15.9517 23.0541 14.792 21.8347 15.2233C20.6987 15.6231 21.2606 18.6001 21.5456 19.6134V19.6132C21.6041 19.823 21.4821 20.0406 21.2725 20.1002C21.238 20.1113 21.2018 20.1165 21.1656 20.116C20.9878 20.1154 20.8315 19.9978 20.7815 19.8269C20.6509 19.3558 19.5345 15.1915 21.5732 14.4749C23.418 13.8296 26.2204 15.6982 26.3395 15.7774C26.4264 15.8352 26.4869 15.9257 26.5071 16.0282C26.527 16.1309 26.5051 16.2372 26.4463 16.3236L26.4463 16.3239ZM28.0575 14.7127V14.7124C28.0012 14.8011 27.9117 14.8638 27.8093 14.8859C27.7066 14.9082 27.5992 14.8886 27.5114 14.8312C26.1854 13.9981 24.7415 13.3693 23.228 12.9668C21.9492 12.6738 20.9358 12.745 20.2154 13.1766C18.8417 14 18.5134 15.5715 18.4775 16.7473H18.4777C18.4584 17.3017 18.5009 17.8567 18.6045 18.4021L19.0637 20.8525C19.1021 21.0665 18.9607 21.2714 18.747 21.3114C18.7224 21.3183 18.697 21.3211 18.6716 21.3194C18.4808 21.3197 18.317 21.1827 18.2836 20.995L17.8283 18.5604H17.8286C17.7131 17.9554 17.6654 17.3393 17.6861 16.7236C17.7256 15.3498 18.1295 13.5053 19.8079 12.4996C20.7106 11.9573 21.9216 11.8543 23.4061 12.1948V12.195C25.0101 12.6167 26.5399 13.2816 27.9427 14.1663C28.1247 14.2859 28.176 14.53 28.0576 14.7125L28.0575 14.7127ZM28.5366 9.88323C29.6807 9.58225 30.8169 11.1976 30.9434 11.3835C31.0121 11.4696 31.0417 11.5806 31.0251 11.6894C31.0085 11.7985 30.9472 11.8957 30.8561 11.9575C30.7647 12.0194 30.6521 12.0404 30.5446 12.0158C30.4372 11.991 30.345 11.9225 30.2901 11.8267C29.9178 11.2843 29.1698 10.536 28.7343 10.6509C28.7224 10.6547 28.6987 10.6589 28.6711 10.7141C28.4336 11.1576 28.7423 12.5708 29.0353 13.4337V13.434C29.0695 13.5326 29.0629 13.6408 29.0168 13.7347C28.9707 13.8283 28.889 13.8996 28.7898 13.9327C28.7492 13.9479 28.7064 13.9559 28.6631 13.9565C28.493 13.957 28.3417 13.8485 28.287 13.6872C28.1484 13.2874 27.4874 11.2407 27.9703 10.3383H27.9705C28.0857 10.1127 28.2914 9.94733 28.5366 9.88299L28.5366 9.88323Z" fill="black"/>
</svg>
