<svg width="23" height="17" viewBox="0 0 23 17" fill="none" xmlns="http://www.w3.org/2000/svg">
<path d="M9.9648 5.56761C9.9648 4.70057 10.7026 4.09079 11.7905 3.68394V1.95297C11.7905 0.670807 8.82473 0 5.89476 0C2.96557 0 0 0.670807 0 1.95297V7.83048C0.123421 8.14182 0.441119 8.41024 0.893801 8.63437C1.43699 7.10959 4.5837 6.55334 7.314 6.55334C8.18932 6.55334 9.10407 6.61303 9.96494 6.74126V5.56754L9.9648 5.56761ZM0.607319 1.95337C0.607319 1.4052 2.66755 0.608847 5.89481 0.608847C9.12241 0.608847 11.1823 1.4052 11.1823 1.95337C11.1823 2.50193 9.12285 3.29809 5.89481 3.29809C2.66755 3.29789 0.607319 2.50154 0.607319 1.95337ZM5.89481 2.68002L3.10733 1.95337L5.89461 1.22691L8.68189 1.95337L5.89481 2.68002ZM16.4678 4.84096L19.2551 5.568L16.4678 6.29466L13.6805 5.56761L16.4678 4.84096ZM16.4678 3.61483C13.5386 3.61483 10.5731 4.28564 10.5731 5.56781V6.84243C12.3872 7.19826 13.8172 7.90757 13.8172 9.11521V12.9035C14.6486 13.03 15.5634 13.0943 16.4682 13.0943C19.1567 13.0943 21.9341 12.529 22.3629 11.4454L22.3631 5.56737C22.3631 4.2852 19.3973 3.61459 16.4679 3.61459L16.4678 3.61483ZM16.4678 6.91272C13.2402 6.91272 11.1803 6.11617 11.1803 5.56761C11.1803 5.01885 13.2398 4.2223 16.4678 4.2223C19.6959 4.2223 21.7553 5.01885 21.7553 5.56761C21.7555 6.11617 19.6959 6.91272 16.4678 6.91272ZM7.31341 7.16149C4.38329 7.16149 1.41767 7.8325 1.41767 9.11525V14.9918C1.84782 16.0758 4.62486 16.6411 7.31341 16.6411C10.0013 16.6411 12.7788 16.0758 13.2082 14.9918V9.11525C13.2086 7.83254 10.2428 7.16149 7.31341 7.16149ZM7.31341 7.76955C10.5405 7.76955 12.5999 8.5659 12.5999 9.11525C12.5999 9.66263 10.5405 10.4596 7.31341 10.4596C4.08581 10.4596 2.02593 9.66263 2.02593 9.11525C2.02612 8.5661 4.08576 7.76955 7.31341 7.76955ZM7.31341 9.84171L4.52613 9.11525L7.31341 8.38761L10.1007 9.11525L7.31341 9.84171Z" fill="black"/>
</svg>
